<?xml version="1.0" encoding="utf-8"?>
<!-- Generator: Adobe Illustrator 22.0.1, SVG Export Plug-In . SVG Version: 6.00 Build 0)  -->
<svg version="1.1" xmlns="http://www.w3.org/2000/svg" xmlns:xlink="http://www.w3.org/1999/xlink" x="0px" y="0px"
	 viewBox="0 0 400 400" style="enable-background:new 0 0 400 400;" xml:space="preserve">
<style type="text/css">
	.st0{fill:none;stroke:#000000;stroke-width:14;stroke-miterlimit:10;}
	.st1{stroke:#000000;stroke-width:14;stroke-miterlimit:10;}
	.st2{fill:#FFF218;stroke:#FEEF2B;stroke-width:14;stroke-miterlimit:10;}
	.st3{fill:#FFF218;stroke:#FCEE2C;stroke-width:14;stroke-miterlimit:10;}
	.st4{fill:#FED403;stroke:#FFD400;stroke-width:14;stroke-miterlimit:10;}
</style>
<g id="layer">
	<path class="st0" d="M470,148"/>
	<line class="st0" x1="199.8" y1="256" x2="199.8" y2="336"/>
	<ellipse class="st1" cx="199.8" cy="343" rx="71.9" ry="15.5"/>
	<path class="st0" d="M88.3,163"/>
	<path class="st2" d="M300.1,167.8c0,43.3-46,78.4-102.8,78.4S94.6,211.1,94.6,167.8S300.1,124.5,300.1,167.8z"/>
	<path class="st3" d="M160,296"/>
	<path class="st3" d="M475,87.5"/>
	<path class="st0" d="M296.1,62.5c6.3,12.1,16.7,36.1,16.4,67.5c-0.1,14.4-0.5,50.6-27.8,81.8c-3.4,3.9-29.2,32.4-71.6,37.6
		c-10.6,1.3-19.5,0.8-25.6,0.1c-49.5-5.7-77.2-43.8-80-47.8c-1-1.5-5-7.1-8.5-14.3c-22.1-45-4.7-101.6,3.4-123.9L296.1,62.5z"/>
	<ellipse class="st4" cx="200.4" cy="148" rx="97.5" ry="12.7"/>
</g>
</svg>
