<?xml version="1.0" encoding="utf-8"?>
<!-- Generator: Adobe Illustrator 22.0.1, SVG Export Plug-In . SVG Version: 6.00 Build 0)  -->
<svg version="1.1" xmlns="http://www.w3.org/2000/svg" xmlns:xlink="http://www.w3.org/1999/xlink" x="0px" y="0px"
	 viewBox="0 0 398 398" style="enable-background:new 0 0 398 398;" xml:space="preserve">
<style type="text/css">
	.st0{fill:url(#SVGID_1_);stroke:#000000;stroke-miterlimit:10;}
	.st1{fill:#8E8E8E;}
	.st2{fill:#FFFFFF;}
</style>
<g id="bg">
	<radialGradient id="SVGID_1_" cx="237" cy="-152" r="2288.0874" gradientUnits="userSpaceOnUse">
		<stop  offset="0" style="stop-color:#3B3963"/>
		<stop  offset="1" style="stop-color:#06F9F9"/>
	</radialGradient>
	<rect class="st0" width="398" height="398"/>
</g>
<g id="font-color">
</g>
<g id="svg">
	<g id="svgg">
		<path id="path1" class="st1" d="M86.1,72.5c-0.3,0.2-1,0.4-1.4,0.4c-0.4,0-1.3,0.3-1.9,0.6c-0.6,0.3-1.4,0.6-1.7,0.6
			c-1.7,0-10.1,6.9-10.1,8.2c0,0.3-0.2,0.5-0.4,0.5c-0.2,0-0.4,0.2-0.4,0.5s-0.3,0.8-0.6,1c-0.3,0.3-0.6,0.9-0.6,1.4
			c0,0.5-0.2,0.9-0.4,0.9s-0.4,0.4-0.4,0.9c0,0.5-0.2,1.5-0.6,2.1c-0.8,1.6-1.2,6.1-1.1,10.5c0.1,2.1,0.1,21.2,0.2,42.4
			s0.2,36.8,0.3,34.5c0.1-2.3,0.3-22,0.3-43.8c0.1-45.1,0-44.1,3.8-49.9c10.6-16.2,36.2-13.5,39.7,4.2c0.3,1.6,1,3.6,1.7,5.2
			c0.6,1.3,4.7,6,6.7,7.6c1,0.8,2.1,1.7,2.5,2c0.4,0.3,2,1.3,3.6,2.1c3.2,1.7,6.8,3.9,9.6,5.8c4.7,3.2,14.8,12.7,18.5,17.5
			c1,1.3,2,2.5,2.2,2.8c2.2,2.6,3.8,4.6,3.8,4.8c0,0.1,0.9,1.4,1.9,2.9c2.5,3.6,3.7,5.8,6.3,11.5c1.3,3,3.8,11.8,3.8,13.6
			c0,0.5,0.2,1.4,0.4,2c0.2,0.6,0.4,3.1,0.4,5.5c0,3.1,0.1,4,0.3,3l0.3-1.4l0,1.6c-0.1,1.9,0.3,2.6,1.2,2.3c0.4-0.2,0.6-0.1,0.4,0.2
			c-0.2,0.3-0.1,0.4,0.4,0.2c0.4-0.2,0.6-0.1,0.4,0.2c-0.2,0.3,0,0.4,0.5,0.2c0.8-0.2,0.8-0.5,0.8-13.1v-12.9h41.2
			c22.7,0,41.3,0.2,41.4,0.3c0.1,0.2-0.4,1.6-1.1,3.1c-0.7,1.5-1.6,3.4-2,4.2c-0.4,0.8-0.9,2.1-1.2,2.8c-0.3,0.7-0.6,1.6-0.6,1.8
			c0,0.2-0.1,0.4-0.3,0.4c-0.3,0-1.4,2.5-1.4,3.1c0,0.2-0.2,0.5-0.5,0.6c-0.7,0.4-0.7,1.1,0,1.1c0.3,0,0.8-0.8,1.2-1.7
			c0.4-0.9,0.9-2,1.1-2.3c0.2-0.3,0.7-1.2,1-2c0.4-0.8,1.1-2.3,1.6-3.3c0.5-1.1,1-2.2,1-2.5c0-0.3,0.2-0.6,0.4-0.6
			c0.3,0,1-1.3,1.7-3.5c0.2-0.5,0.1-1.4-0.1-1.9l-0.4-1h-41.6c-37.6,0-41.6,0.1-41.8,0.6c-0.1,0.3-0.2,6.3-0.2,13.3v12.7l-1-0.5
			c-1.2-0.6-1.2-0.6-1.8-7.6c-0.3-3.1-0.6-5.7-0.8-6c-0.2-0.2-0.4-1.2-0.4-2.3c0-1-0.2-2-0.4-2.1c-0.2-0.1-0.5-1-0.6-2
			c-0.1-1-0.4-1.8-0.6-1.8s-0.4-0.5-0.4-1c0-0.6-0.4-2-0.9-3.1c-0.5-1.1-1.3-2.9-1.7-3.9c-0.4-1-0.8-1.9-1-2c-0.1-0.1-0.6-0.9-1-1.7
			c-0.4-0.8-0.9-1.5-1.1-1.5c-0.2,0-0.3-0.4-0.3-0.8s-0.2-0.9-0.5-1c-0.3-0.1-1-1-1.5-2c-0.5-1-1.2-1.9-1.4-2
			c-0.3-0.1-0.5-0.4-0.5-0.7c0-0.3-0.4-0.9-0.9-1.5c-0.5-0.5-1.6-2-2.5-3.2c-0.9-1.2-2.3-2.9-3.1-3.7c-0.8-0.8-1.4-1.7-1.4-1.8
			c0-0.6-5.6-6-6.2-6c-0.3,0-0.6-0.2-0.6-0.5c0-0.7-1-1.7-3.2-3.5c-1-0.8-2.2-1.8-2.7-2.2c-0.5-0.5-1.4-1.1-2-1.4
			c-0.6-0.3-1.5-0.9-2-1.4c-0.5-0.5-1.2-0.9-1.4-0.9c-0.2,0-0.7-0.3-1-0.6c-0.3-0.3-1.5-1.1-2.6-1.7c-3.5-2-4.3-2.4-6.6-3.8
			c-1.2-0.7-2.3-1.5-2.3-1.7s-0.3-0.3-0.5-0.3c-1.6,0-8.3-8.6-8.3-10.7c0-0.4-0.3-1.2-0.6-1.8c-0.3-0.6-0.6-1.6-0.6-2.3
			c0-0.6-0.2-1.2-0.4-1.4c-0.2-0.1-0.4-0.6-0.4-1c0-0.4-0.3-1-0.6-1.3c-0.3-0.3-0.6-0.9-0.6-1.2c0-0.9-4.8-5.2-7-6.2
			c-1.1-0.5-2.3-1.1-2.7-1.3C97.2,72.5,87.3,71.7,86.1,72.5 M84.3,89.6c-0.4,0.2-1.4,0.6-2.2,0.9c-1.8,0.7-4.5,3.3-5.3,5.1
			c-0.3,0.8-0.8,1.9-1.1,2.6c-0.4,0.9-0.5,12.9-0.6,53.7c-0.1,28.9-0.2,52.6-0.3,52.7c-0.2,0.2-1.9-0.3-4.4-1.2
			c-1.8-0.6-14.9-0.9-17.2-0.3c-1.1,0.3-2.6,0.6-3.5,0.8c-5.2,1-13.3,5.6-17.4,9.8c-4,4.1-6.4,8.2-8,13.8c-0.9,2.9-0.9,9.8,0,11.8
			c0.3,0.8,0.6,1.9,0.6,2.4c0,0.5,0.2,0.9,0.4,0.9c0.2,0,0.4,0.4,0.4,0.8c0,0.4,0.4,1.5,1,2.4s1,1.7,1,1.8
			c0,2.6,10.4,11.3,16.3,13.6c0.5,0.2,1.7,0.7,2.5,1c0.8,0.4,1.9,0.7,2.5,0.7c0.5,0,1.1,0.2,1.2,0.3c0.6,1,14.4,1.4,18.8,0.5
			c1.3-0.3,3-0.6,3.8-0.7c0.8-0.1,1.7-0.5,2.2-0.8c0.4-0.3,1.2-0.5,1.7-0.5c0.5,0,0.9-0.2,0.9-0.4c0-0.2,0.2-0.4,0.5-0.4
			c0.6,0,3.1-1.2,3.4-1.6c0.1-0.1,0.9-0.6,1.7-1c0.8-0.4,1.5-0.9,1.5-1.1c0-0.2,0.2-0.3,0.5-0.3c0.9,0,6.7-6,8.4-8.7
			c1.5-2.3,2.1-3.6,3.5-7.2c0.2-0.5,0.4-1.4,0.4-2.1c0-0.7,0.2-1.5,0.4-1.9c0.3-0.6,0.9-21.9,1.6-64.6c0.5-26.9,0.8-32.8,1.7-31.9
			c0.3,0.3,0.8,0.5,1.2,0.5c0.4,0,0.7,0.1,0.7,0.3c0,0.2,0.8,0.7,1.8,1.1s1.8,0.9,1.8,1.1c0,0.2,0.2,0.3,0.4,0.3
			c1.9,0,12.2,9.7,16.1,15.2c7.9,11.1,9.4,22.9,4.2,34.4c-1.6,3.6-2.2,4.7-3.6,7.2c-0.9,1.5-1.7,3.1-1.8,3.5
			c-0.1,0.4-0.4,0.7-0.5,0.7s-0.4,0.3-0.6,0.7c-0.3,0.8-0.9,1.9-2.1,3.6c-0.5,0.7-0.9,1.4-0.9,1.7c0,0.2-0.1,0.5-0.3,0.5
			c-0.7,0.3-5.7,8.3-5.5,8.7c0.4,0.6,4.8,0.5,7.2-0.2c2-0.6,4.1-0.6,2.3,0c-1.9,0.6-7.3,3.5-8.3,4.4c-0.6,0.5-1.3,1-1.4,1
			c-2.1,0-12.8,14.6-12.8,17.5c0,0.4-0.1,0.8-0.3,1c-3.2,3.7-3.3,24.3-0.1,32.3c5.1,12.7,14.1,21.1,26.7,25.1c3.2,1,14.4,1,17.5,0
			c5.2-1.6,10-4.2,13.1-7c1.5-1.3,1.6-1.1,1.6,1.9c0,4.1-0.2,4,10.8,4c5,0,9.3-0.1,9.7-0.2c0.6-0.2,0.6-4.1,0.6-40v-39.8L168,220
			l-10.5,0.1l-0.1,3.3c-0.1,1.8-0.2,3.3-0.3,3.3c-0.3,0-3.1-2.1-3.3-2.5c-0.1-0.2-0.4-0.3-0.7-0.3c-0.3,0-0.6-0.1-0.6-0.3
			c0-0.7-8-4.4-10.8-5c-2.4-0.5-14.9-0.5-17,0c-0.9,0.2-1.9,0.3-2.2,0.1c-0.4-0.3-0.3-0.3,0.2-0.3c0.8,0,3.5-1.5,6.2-3.3
			c2.8-1.9,10.8-10.1,10.8-11c0-0.2,0.1-0.4,0.3-0.5c1-0.4,5.8-9.5,7.1-13.5c0.4-1.2,0.8-2.5,1-3c2.5-7,2.1-20.7-0.9-29.5
			c-1.5-4.4-6.6-14-7.9-14.9c-0.2-0.1-0.4-0.4-0.4-0.6s-0.6-1-1.1-1.6c-0.5-0.6-1.4-1.9-2.1-2.7c-7.3-9.5-11.4-13.1-23.1-20.5
			c-8.3-5.3-15.5-14.4-15.5-19.7c0-1.2-0.9-3.5-1.8-4.8C93.5,90.1,87.2,88.4,84.3,89.6 M93.2,91.5c1.8,1.2,2.5,2.2,3.1,4.7
			c1.7,6.6,2.6,9,3.3,9c0.2,0,0.3,0.2,0.3,0.5c0,1.7,11.2,12.3,12.9,12.3c0.2,0,0.9,0.4,1.6,1c0.7,0.5,1.4,1,1.6,1
			c2.4,0,20.6,17.5,20.6,19.9c0,0.2,0.2,0.4,0.4,0.5c0.5,0.2,4.8,6.8,6.4,9.6c6.3,11.8,7.8,28.3,3.7,39.1c-2.5,6.6-3.4,8.3-6.2,12.5
			c-7,10.6-14.5,16.2-23.8,17.8c-4.5,0.8-5.6,0.6-4.4-0.8c0.9-1.1,7.3-10.6,7.3-10.9c0-0.1,0.3-0.5,0.6-0.9c0.3-0.3,1-1.4,1.6-2.4
			c0.5-1,1.6-2.8,2.3-4c10.4-18.1,8.3-33.2-6.9-48.7c-4.4-4.4-9.1-8.1-13.7-10.4c-4.6-2.4-4.5-2.4-4.6,5c0,3.3-0.2,12.5-0.4,20.4
			c-0.5,17.1-1.2,53-1.4,62.7c-0.1,9.3-1.1,13.3-4.7,18.8c-3.6,5.6-11.6,11.7-17.4,13.3c-0.5,0.2-1.4,0.4-1.8,0.6
			c-10,4.2-28,1.3-37.5-6.1c-29.3-22.6,0.3-62.7,37.6-50.9c0.9,0.3,1.4,0.3,1.5,0c0.1-0.2,0.3-23.7,0.4-52.3
			c0.1-35.4,0.3-52.4,0.6-53.6c1.6-6.6,5.2-9.2,12.2-9C91.1,90.3,91.8,90.5,93.2,91.5 M288.5,122.6l-0.9,0.6l0.1,30.3
			c0,16.7,0.2,26.5,0.3,21.8l0.2-8.6l0.2,13.5c0.1,8.9,0.2,1.5,0.3-21.8l0.1-35.4l19.6,0.1l19.6,0.1l0.1,15
			c0.1,11.6,0.2,15.1,0.6,15.1c0.6,0.1,0.7,0,4.1-1c3.8-1.1,16.5-1.2,20.5-0.1c5.5,1.5,8.8,2.8,12.7,5.1c1.1,0.6,1,0.6,3.9,2.7
			c2,1.5,10.2,9.2,9.2,8.7c-0.3-0.1-0.1,0.1,0.4,0.5c0.5,0.4,0.8,0.9,0.7,1c-0.1,0.1,0.3,0.8,1,1.4c0.6,0.7,1.1,1.3,1,1.4
			c-0.1,0.1,0.1,0.3,0.4,0.5c0.4,0.1,0.6,0.4,0.4,0.6s0,0.4,0.2,0.4s0.3,0.2,0.2,0.4s-0.1,0.5,0.1,0.6c0.2,0.1,0.5,0.1,0.6-0.1
			c0.3-0.4-1.8-4-2.3-4c-0.2,0-0.2,0.2,0,0.4c0.2,0.3,0.1,0.4-0.2,0.2c-0.3-0.2-0.4-0.4-0.3-0.6c0.5-0.7-5.5-8-6.6-8
			c-0.2,0-0.4-0.2-0.4-0.5c0-0.3-0.6-0.9-1.3-1.5c-0.7-0.5-1.5-1.2-1.8-1.5c-0.3-0.3-0.6-0.5-0.8-0.5s-0.8-0.4-1.3-0.9
			c-1.7-1.5-6.8-4.3-7.8-4.3c-0.3,0-0.6-0.2-0.6-0.4c0-0.2-0.4-0.4-0.9-0.4c-0.5,0-1.2-0.3-1.7-0.6c-0.4-0.3-1.3-0.6-1.9-0.6
			c-0.6,0-1.2-0.2-1.3-0.4c-0.1-0.2-1.2-0.4-2.3-0.4s-2.3-0.2-2.6-0.5c-0.8-0.8-11.6-0.9-13.3-0.1c-0.7,0.3-2.1,0.6-3.2,0.6
			c-1,0-2,0.2-2.2,0.4c-0.1,0.2-0.8,0.4-1.4,0.4h-1.2v-14.6c0-13.4-0.1-14.6-0.7-15.1C327.3,121.6,289.8,121.7,288.5,122.6
			 M298.9,127.4L298,128v38v38l-30.8,0.1l-30.8,0.1l-0.1,8c-0.1,4.4,0,8.4,0.1,8.9l0.2,0.9h14.1c8.7,0,14.2,0.1,14.4,0.4
			c0.2,0.4-0.2,1.2-3.5,7.1c-0.8,1.4-1.4,2.7-1.4,2.9c0,0.2-0.1,0.4-0.3,0.4c-0.2,0-0.9,1.1-1.6,2.5c-0.7,1.4-1.6,3-2,3.7
			c-0.4,0.7-1.2,2-1.7,3c-0.6,1-1.5,2.5-2,3.4c-0.5,0.8-1.6,2.6-2.3,3.9c-2.7,4.8-2.9,5.2-3.2,5.6c-0.2,0.2-0.9,1.5-1.6,2.8
			c-0.7,1.3-1.6,2.9-2,3.6c-0.4,0.7-1.1,1.9-1.5,2.8c-0.8,1.6-1.2,2.3-2.4,4.2c-0.4,0.5-1.2,2.1-2,3.4c-0.7,1.3-1.8,3.2-2.3,4.2
			c-0.5,1-1.2,2.2-1.4,2.6c-0.2,0.4-0.5,0.9-0.7,1c-0.9,0.7-2,3.7-1.5,4.2c0.6,0.7,62.4,0.9,63.7,0.2c1.2-0.6,1.2-16.5,0-17.1
			c-0.5-0.3-6.4-0.4-16.3-0.4c-17.1,0-16.2,0.2-14.6-2.6c0.5-0.9,1.3-2.3,1.8-3.2c0.4-0.9,1-1.9,1.3-2.4c1.8-2.8,3.1-5,3.1-5.2
			c0-0.1,0.4-0.9,1-1.8c0.5-0.8,1.7-3,2.6-4.7c0.9-1.7,2-3.6,2.3-4.1c0.4-0.5,1.3-2.1,2-3.4c2.2-4,3.1-5.5,4.4-7.8
			c0.7-1.2,1.4-2.5,1.5-2.9c0.1-0.4,0.4-0.7,0.6-0.7s0.4-0.2,0.4-0.5c0-0.3,0.3-0.8,0.6-1c0.3-0.3,0.6-0.8,0.6-1.2
			c0-0.4,0.1-0.8,0.3-0.8c0.2-0.1,0.9-1.2,1.7-2.5c0.7-1.3,1.6-2.9,2-3.6c1.4-2.5,2.8-4.9,4.7-8.3c1.1-1.9,2-3.7,2-3.9
			s0.2-0.3,0.4-0.2c0.3,0.2,0.4,5.9,0.4,15.8c0,14.4,0.1,15.6,0.7,16.1c0.5,0.4,2.9,0.5,9.8,0.5c11,0,10.7,0.1,10.7-4.3
			c0-3.3,0.1-3.3,3-0.7c0.9,0.8,1.8,1.4,2.1,1.4c0.3,0,0.5,0.1,0.5,0.3c0,0.3,0.4,0.6,3,1.8c2.6,1.2,3.1,1.4,4.5,1.9
			c6.9,2.2,18.1,1.8,23.5-0.9c0.3-0.2,1.1-0.5,1.8-0.8c6.1-2.8,14.8-10.7,17.5-16.1c0.3-0.7,0.8-1.5,1-1.8c1.2-2,2.3-4.9,3.7-10
			c1.2-4.3,1.2-18.2,0-22.7c-1.2-4.4-1.5-5.2-2.4-7.2c-0.4-1-0.9-2.1-1.1-2.4c-4.8-11.6-19.7-21.1-33.1-21.1
			c-5.7,0-18.6,3.8-18.6,5.5c0,0.1-0.5,0.5-1.1,0.7c-0.6,0.3-1.8,1.1-2.7,1.9l-1.6,1.4l-0.1-18.2c-0.1-18.1-0.1-18.2-1-19.1
			C317.1,126.4,300.6,126.2,298.9,127.4 M318.3,146.8c0.1,12.1,0.3,18.7,0.6,18.8c0.2,0.1,1.3-0.6,2.4-1.5c1.9-1.5,6-4.3,6.4-4.3
			c0.1,0,1.1-0.4,2.3-0.9c20.8-9.3,44.4,4.5,49.5,29c0.7,3.4,0.8,16,0.2,18.8c-2.8,12.2-8.4,20.7-18.1,26.9
			c-3.1,2.1-7.2,3.9-9.6,4.4c-0.7,0.1-1.9,0.4-2.8,0.6c-2,0.5-10.6,0.5-12.9,0c-3.7-0.7-4.3-0.9-7.8-2.6c-2-0.9-4.8-2.7-6.4-3.9
			c-3.5-2.8-3.5-2.7-3.8,1.4l-0.2,3.4l-9.3,0.1c-6.5,0.1-9.5,0-9.9-0.3c-0.8-0.6-0.8-108.1-0.1-108.5c0.3-0.1,4.7-0.2,9.9-0.1
			l9.4,0.1L318.3,146.8 M186.1,170.6l0.1,10.1l13.6,0.1c14.9,0.1,14.5,0,13.3,2.4c-0.2,0.4-1.3,2.6-2.4,4.9
			c-1.1,2.3-3.1,6.4-4.4,9.2c-1.3,2.7-3.1,6.5-4,8.4c-2.4,5.1-6.8,14.2-8.3,17.3c-0.7,1.5-1.4,3-1.4,3.3c0,0.3-0.2,0.5-0.4,0.5
			c-0.2,0-0.4,0.2-0.4,0.4c0,0.2-0.7,1.9-1.6,3.7c-0.9,1.8-1.6,3.5-1.6,3.8c0,0.3-0.2,0.5-0.4,0.5s-0.4,0.3-0.4,0.6
			c0,0.5,0.1,0.6,0.6,0.2c0.3-0.3,0.6-0.7,0.6-1c0-0.3,1-2.6,2.3-5.2c1.3-2.6,2.8-5.8,3.4-7.2c0.6-1.3,1.3-2.7,1.5-3
			c0.2-0.3,0.5-0.9,0.6-1.2c0.1-0.3,1.2-2.7,2.4-5.2c2-4.2,3-6.2,7.1-15.1c0.8-1.6,1.6-3.3,1.8-3.6c0.2-0.3,0.5-0.9,0.6-1.2
			c0.1-0.3,1.5-3.1,3-6.3c1.5-3.1,2.7-5.9,2.7-6.1c0-0.3-4.8-0.4-14.1-0.4h-14.1v-9.8V161l28.4,0.1c32.6,0.1,30-0.3,27.4,4.3
			c-0.2,0.3-0.6,1.2-1,2c-1.1,2.4-5.7,12.1-6.7,14.1c-0.5,1.1-2.3,4.8-3.9,8.2c-2.9,6-4.9,10.3-6.9,14.7c-0.6,1.2-1.2,2.5-1.4,2.9
			c-0.5,1-0.4,1.3,0.2,0.7c0.3-0.3,0.6-0.7,0.6-0.9c0-0.2,0.8-2.1,1.8-4.2c1-2.1,2.5-5.2,3.4-7s2.6-5.4,3.9-8.2
			c1.3-2.7,2.8-5.9,3.3-7c0.5-1.1,1.7-3.6,2.6-5.6c1-2,1.7-3.8,1.7-4.1s0.1-0.5,0.3-0.5s0.6-0.8,1-1.7c0.4-0.9,1.2-2.8,1.9-4.1
			c0.7-1.5,1.1-2.7,0.9-3.3l-0.2-0.9h-28.8H186L186.1,170.6 M251.2,169.7c0.1,0.2,0,0.4-0.2,0.4s-0.3,0.2-0.2,0.4
			c0.1,0.2,0.1,0.4-0.1,0.4c-0.2,0-0.5,0.3-0.6,0.6c-0.2,0.4-0.1,0.5,0.3,0.3c0.3-0.2,0.1,0.1-0.4,0.6c-0.9,0.9-1.1,1.3-0.9,2.4
			c0,0.3-0.1,0.4-0.4,0.2c-0.3-0.2-0.4-0.1-0.3,0.3c0.1,0.3-0.1,0.8-0.4,1c-0.5,0.4-0.5,0.6-0.2,0.9c0.4,0.4,0.8-0.3,1.9-2.7
			c0.8-1.7,1.6-3.4,1.8-3.8c0.5-0.9,0.5-1.5,0-1.5C251.1,169.3,251.1,169.5,251.2,169.7 M334.9,174.9c-0.4,0.2-1.2,0.4-1.7,0.4
			c-3.7,0.1-11,6.2-13.2,10.8c-6.5,14.2,0.4,31.3,14,34.3c21,4.7,35.5-22.1,21-38.8C350.3,176.2,339.8,172.8,334.9,174.9
			 M342.6,175.5c7.2,0.8,13.8,6.7,16.1,14.4c1.9,6.4,1.9,9.3,0,15.4c-0.3,1-0.6,2.1-0.6,2.5c0,0.4-0.2,0.6-0.4,0.6
			c-0.2,0-0.4,0.3-0.4,0.6c0,1.3-4.9,7-6.8,7.9c-0.7,0.3-2.1,1.2-2.4,1.5c-1.7,1.8-12.6,2.4-16,1c-3.7-1.6-4.6-2.1-7.4-4.8
			c-9.1-8.7-9.1-24.8,0-33.8c2.9-2.8,6.6-4.7,10.4-5.3C338.4,175.1,338.9,175.1,342.6,175.5 M384.2,176.6c0.1,0.3,0.4,0.4,0.7,0.4
			c0.3-0.1,0.4,0.2,0.2,0.7c-0.2,0.6-0.1,0.8,0.2,0.6c0.3-0.2,0.4-0.1,0.3,0.3c-0.1,0.3,0.1,0.6,0.3,0.6c0.5,0.1,0.5-0.2-0.2-1.8
			C385.2,176.2,383.8,175.4,384.2,176.6 M247.3,178.3c0.2,0.5,0.1,0.7-0.2,0.5c-0.3-0.2-0.4-0.1-0.2,0.4c0.2,0.4,0.1,0.6-0.1,0.4
			c-0.2-0.1-0.4,0.1-0.4,0.6c0,0.5-0.2,0.8-0.5,0.8c-0.3-0.1-0.5,0.1-0.5,0.3c0,0.9,1,0.1,1.8-1.4c0.6-1.2,0.7-1.6,0.3-2
			C247.1,177.6,247,177.6,247.3,178.3 M386.3,180.5c-0.1,0.2,0,0.9,0.3,1.5c0.5,0.9,0.6,0.9,0.8,0.4c0.1-0.4,0.1-0.6-0.1-0.5
			c-0.2,0.1-0.4,0-0.6-0.4c-0.1-0.3,0-0.6,0.2-0.7c0.3-0.1,0.3-0.2,0-0.4C386.7,180.2,386.4,180.2,386.3,180.5 M389.3,192
			c0,0.3,0.2,1,0.3,1.4c0.2,0.5,0.3,0.6,0.3,0.2c0-0.3-0.2-1-0.3-1.4C389.4,191.7,389.3,191.7,389.3,192 M56.3,193.1
			c0.6,0.1,1.6,0.1,2.2,0c0.6-0.1,0.1-0.2-1.1-0.2C56.2,192.9,55.7,193,56.3,193.1 M61.5,193.1c0.6,0.1,1.6,0.1,2.2,0
			c0.6-0.1,0.1-0.2-1.1-0.2C61.3,192.9,60.9,193,61.5,193.1 M50.7,193.5c0.4,0.1,1,0.1,1.4,0c0.4-0.1,0.1-0.2-0.7-0.2
			C50.6,193.3,50.3,193.4,50.7,193.5 M34.7,197.8c-0.5,0.3-0.8,0.6-0.6,0.6c0.2,0,0.8-0.3,1.4-0.6c0.5-0.3,0.8-0.6,0.6-0.6
			C35.8,197.2,35.2,197.5,34.7,197.8 M390.2,202.8c0,2.7,0.1,3.9,0.1,2.5c0.1-1.4,0.1-3.6,0-5C390.3,198.9,390.2,200.1,390.2,202.8
			 M296.9,205.1c-0.1,0.4-1.3,2.5-2.6,4.7c-1.3,2.2-3,5.3-3.9,6.9c-0.8,1.6-1.7,3.1-1.9,3.4c-0.4,0.5-1.7,2.8-3,5.3
			c-0.5,0.9-1.4,2.5-2.1,3.6c-0.7,1.1-1.6,2.6-1.9,3.4c-0.4,0.8-1.3,2.4-2.1,3.6c-0.7,1.2-1.4,2.4-1.4,2.7c0,0.3-0.2,0.5-0.4,0.5
			s-0.4,0.3-0.4,0.6s-0.4,1.2-0.9,1.9c-0.5,0.7-1.5,2.3-2.2,3.7c-0.7,1.3-1.8,3.3-2.5,4.4c-0.7,1.1-1.7,2.9-2.3,4
			c-0.6,1.1-1.4,2.6-1.9,3.4c-0.4,0.8-1.3,2.2-1.8,3.2c-0.6,1-1.5,2.6-2.1,3.5c-1.9,3-2.9,2.8,15.2,2.9l16.2,0.1l0.1,8.3l0.1,8.3
			h-31.7c-20.1,0-31.7-0.1-31.7-0.4c0-0.3,0.5-1.2,2.8-5.4c0.4-0.7,1.7-3,3-5.2c3.2-5.5,4.8-8.3,5.1-9c0.2-0.3,0.7-1.3,1.3-2.2
			c0.6-0.9,1.1-1.9,1.3-2.2c0.1-0.3,0.6-1.2,1.1-2c0.5-0.8,1.5-2.5,2.2-3.8c0.7-1.3,1.7-2.9,2.1-3.6c0.4-0.7,0.9-1.5,1-1.8
			c0.2-0.3,0.9-1.5,1.6-2.7c0.7-1.1,1.3-2.3,1.3-2.7s0.2-0.6,0.3-0.7c0.3-0.1,3.6-5.8,3.6-6.2c0-0.1,0.2-0.5,0.6-0.9
			c0.3-0.3,1-1.6,1.6-2.7c0.6-1.2,1.2-2.2,1.4-2.3c0.2-0.1,0.4-0.6,0.4-1c0-0.4,0.1-0.8,0.3-0.8c0.5,0,3.4-5.6,3.1-6.2
			c-0.2-0.5-2.5-0.6-14.7-0.7l-14.5-0.1l-0.1-7.8c-0.1-4.3,0-8,0.1-8.3c0.2-0.4,6.2-0.5,30.3-0.5
			C295.6,204.4,297.2,204.4,296.9,205.1 M17.7,209.3l-3.2,3.3l3.3-3.2c1.8-1.7,3.3-3.2,3.3-3.3C21.1,205.8,20.7,206.2,17.7,209.3
			 M221.2,209.3c-0.3,0.3-0.5,0.7-0.5,0.9c0,0.2-1,2.6-2.3,5.2c-1.3,2.6-2.6,5.5-3,6.4c-0.4,0.9-1.6,3.4-2.7,5.6
			c-1.1,2.2-1.9,4.1-1.9,4.3c0,0.2,6.7,0.3,14.8,0.3c8.2,0,15.2,0.1,15.7,0.2c1.1,0.3,1.4,17.6,0.3,18.7c-0.7,0.7-60,0.9-60,0.2
			c0-0.2,0.8-2.1,1.8-4.2c1-2.1,1.8-4,1.8-4.3c0-0.3,0.1-0.6,0.3-0.7c0.2-0.1,0.6-0.9,1-1.7c0.4-0.9,0.9-1.9,1.1-2.3
			c0.2-0.4,0.3-0.8,0.2-0.9c-0.1-0.1-1.3,2.1-2.6,4.9c-1.3,2.8-2.9,6-3.4,7c-0.6,1.1-0.9,2.2-0.8,2.5c0.3,0.9,60.2,0.9,61,0
			c0.9-0.9,0.8-19.2-0.1-19.5c-0.3-0.1-7.4-0.2-15.7-0.2h-15.1l2.1-4.1c2.5-5,3.9-8,3.9-8.6c0-0.2,0.1-0.5,0.3-0.6
			c0.2-0.1,0.6-0.8,0.9-1.5s1.3-2.8,2.1-4.5C222,209.3,222.2,208.2,221.2,209.3 M140.1,218.9c3.3,0.7,3.5,0.8,6.9,2.3
			c3.7,1.6,3.3,1.4,10.4,6.7c0.7,0.5,0.7,0.4,0.7-3.5v-4h10h10v39.4v39.4l-9.9-0.1l-9.9-0.1l-0.1-3.7l-0.1-3.7l-1.3,0.9
			c-0.7,0.5-1.5,1.2-1.9,1.5c-6.9,6.7-22.1,9.3-32.5,5.6c-21.1-7.6-31.5-32.2-23.4-56C104.9,226.2,123,215.4,140.1,218.9
			 M133.9,236.9c-7.9,1.5-14,7.1-16.8,15.5c-1,2.9-0.7,12.6,0.4,15.8c6.7,19.6,32.9,20,40.1,0.7c1.6-4.2,1.7-13.4,0.3-17.6
			c-2.3-6.6-7.1-11.4-14-13.8C142.4,237,135.6,236.6,133.9,236.9 M4.9,238.4c0,0.9,0.1,1.2,0.2,0.7c0.1-0.5,0.1-1.2,0-1.6
			C5,237.2,4.9,237.6,4.9,238.4 M141.9,237.7c2.5,0.6,3.2,0.9,5.9,2.1c1.8,0.9,6.1,4.8,7,6.6c0.4,0.8,0.9,1.4,1.1,1.4
			c0.2,0,0.3,0.3,0.3,0.7c0,0.4,0.2,0.9,0.3,1.1c2.2,2.4,2.3,15.6,0.2,19.8c-0.3,0.6-0.6,1.3-0.6,1.5c0,2.7-6.8,8.6-12.4,10.8
			c-1.9,0.7-10.5,0.7-12.4,0c-3.4-1.4-4.4-1.8-4.4-2.1c0-0.2-0.2-0.3-0.5-0.3c-1.8,0-8.6-9.4-8.6-11.9c0-0.4-0.2-0.9-0.4-1
			c-0.2-0.1-0.4-2.8-0.4-6.6c0-3.8,0.2-6.4,0.4-6.6c0.2-0.1,0.4-0.6,0.4-1c0-3.6,8.2-13.1,11.3-13.1c0.3,0,0.6-0.1,0.7-0.3
			C130.5,237.4,138.2,236.8,141.9,237.7 M299.1,252.5c5.3,0.1,13.9,0.1,19.1,0c5.2-0.1,0.8-0.1-9.7-0.1
			C298,252.4,293.8,252.4,299.1,252.5 M340.7,254.5c1,0.1,2.7,0.1,3.8,0c1-0.1,0.2-0.1-1.9-0.1C340.5,254.3,339.7,254.4,340.7,254.5
			 M17.3,267.3c1.1,1.1,2.1,2,2.2,2c0.1,0-0.7-0.9-1.8-2c-1.1-1.1-2.1-2-2.2-2C15.5,265.3,16.3,266.2,17.3,267.3 M158.3,309.5
			c5.4,0.1,14.3,0.1,19.7,0c5.4-0.1,1-0.1-9.9-0.1C157.3,309.3,152.8,309.4,158.3,309.5 M130.8,311.4c0.4,0.1,1,0.1,1.4,0
			c0.4-0.1,0.1-0.2-0.7-0.2S130.4,311.3,130.8,311.4"/>
		<path id="path2" class="st2" d="M86.7,73.4c-7.5,1.1-15.5,7.4-17.4,13.7c-2,6.6-1.9,2.7-1.9,56.5l0,49.7h-3.7
			c-7.1,0-13.3,0.3-15.5,0.8C26.9,198.6,12.3,210.3,7,227c-2.5,7.9-2.2,21.4,0.6,24.6c0.2,0.2,0.3,0.6,0.3,0.9
			c0,2.3,5.3,10.3,9.9,14.9c8.2,8.2,16.6,12.4,30.9,15.6c3.3,0.7,19,0.7,22.3,0c5.7-1.3,9.1-2.2,11.2-3.1c0.7-0.3,1.4-0.5,1.5-0.5
			c0.1,0,1.2-0.5,2.5-1c2.4-1.1,2.6-1.1,3.3,1c2.9,7.9,13.9,22.7,16.9,22.7c0.3,0,1.1,0.5,1.7,1.2c6.6,6.9,28,10.4,38.6,6.4
			c0.7-0.3,8.6-0.4,21.1-0.4H188l0.1-23.8l0.1-23.8l21.6-0.1c24-0.1,22.8-0.3,21.1,2.6c-0.5,0.8-1.3,2.2-1.7,3
			c-0.4,0.8-0.9,1.5-1.1,1.5c-0.2,0-0.3,0.2-0.3,0.4c0,0.2-1,2.1-2.3,4.3c-1.2,2.1-2.6,4.6-3.1,5.5c-0.5,0.9-1.2,2.2-1.7,2.9
			s-0.9,1.4-0.9,1.5c0,0.1-1,2-2.3,4.1c-3.5,6.1-3.4,5.8-2.6,6.2c0.9,0.3,88.6,0.4,89.5,0.1c1-0.4,1-36.2,0-36.6
			c-0.3-0.1-6.2-0.2-12.9-0.2c-6.8,0-12.3-0.1-12.3-0.3c0-0.2,0.4-0.8,0.8-1.5c0.4-0.7,0.9-1.5,1-1.8c0.2-0.3,1.1-2,2.2-3.8
			c1-1.8,2.4-4.1,3-5.3c1.7-3,1.9-2.7,2,2.5c0.2,6.4-2.2,5.7,20.8,5.7c17,0,20.1,0.1,22,0.6c6.6,1.9,19.7,1.6,25.3-0.6
			c0.4-0.2,1.7-0.6,2.8-1c8.1-2.9,17.1-10.4,22.9-19c1.7-2.6,5.2-9.9,5.2-10.9c0-0.5,0.2-0.9,0.4-1.1c0.2-0.1,0.4-0.6,0.4-1.1
			c0-0.5,0.2-1.6,0.6-2.5c1.4-4.2,2.1-19,1-23.6c-1.7-7.3-1.9-7.9-3.2-11.7c-2.8-7.4-10.8-17.7-17.1-21.8c-1-0.6-1.8-1.2-2-1.3
			c-0.8-0.8-7.1-3.8-10-4.7c-5.4-1.7-6.6-1.8-14.1-1.8c-6.5,0-8,0.1-10.4,0.8c-3.4,1-3.5,1-4.1,1c-0.4,0-0.5-3.5-0.6-15.1l-0.1-15
			l-19.6-0.1l-19.6-0.1v35.2c0,26.8-0.1,35.3-0.5,35.7c-0.6,0.5-48.3,0.7-48.7,0.2c-0.1-0.2,1-2.6,2.4-5.5c1.4-2.8,2.6-5.4,2.6-5.7
			c0-0.3,0.2-0.5,0.4-0.5c0.2,0,0.4-0.3,0.4-0.6c0-0.6,2.2-5.3,7.3-15.8c1.4-3,2.9-6.1,3.3-7c0.4-0.9,1.3-2.8,2-4.3
			c0.7-1.5,1.2-2.9,1.1-3.1c-0.1-0.2-18.8-0.3-41.4-0.3h-41.2v13c0,14.2,0,14-2.3,12.8c-1.8-0.9-2-1.7-2-6.2c0-2.2-0.2-4.8-0.4-5.7
			c-0.2-0.9-0.7-3.1-1.1-4.9c-0.7-3.3-2.2-8.3-3.1-10.4c-2.6-5.7-3.7-7.8-6.3-11.5c-1-1.5-1.9-2.8-1.9-2.9c0-0.2-1.6-2.2-3.8-4.8
			c-0.2-0.3-1.2-1.5-2.2-2.8c-3.7-4.8-13.7-14.3-18.5-17.5c-2.8-1.9-6.4-4.1-9.6-5.8c-1.6-0.9-3.2-1.8-3.6-2.1
			c-0.4-0.3-1.5-1.2-2.5-2c-2-1.6-6.1-6.3-6.7-7.6c-0.7-1.6-1.4-3.6-1.7-5.2C108.7,77.4,99,71.6,86.7,73.4 M90.4,89.7
			c4.3,1.4,6.8,4.2,6.8,7.7c0,5.4,7.1,14.5,15.5,19.7c10.6,6.7,14.9,10.3,20.7,17.4c0.7,0.8,1.8,2.2,2.4,3.1
			c0.7,0.9,1.6,2.1,2.1,2.7c0.5,0.6,1,1.3,1.1,1.6s0.3,0.5,0.4,0.6c1.3,0.9,6.4,10.6,7.9,14.9c3,8.8,3.4,22.5,0.9,29.5
			c-0.2,0.4-0.6,1.8-1,3c-1.3,4-6,13-7.1,13.5c-0.2,0.1-0.3,0.3-0.3,0.5c0,0.9-8,9.1-10.8,11c-2.7,1.9-5.4,3.3-6.2,3.3
			c-0.5,0-0.6,0.1-0.2,0.3c0.3,0.2,1.3,0.1,2.2-0.1c2.1-0.5,14.6-0.5,17,0c2.7,0.6,10.8,4.3,10.8,5c0,0.2,0.3,0.3,0.6,0.3
			c0.3,0,0.6,0.1,0.7,0.3c0.2,0.4,3,2.5,3.3,2.5c0.1,0,0.3-1.5,0.3-3.3l0.1-3.3L168,220l10.5-0.1v39.8c0,35.9-0.1,39.8-0.6,40
			c-0.3,0.1-4.7,0.2-9.7,0.2c-11,0-10.8,0.1-10.8-4c0-3-0.2-3.2-1.6-1.9c-3.1,2.7-7.9,5.3-13.1,7c-3.1,1-14.4,1-17.5,0
			c-12.7-4-21.7-12.5-26.7-25.1c-3.2-7.9-3.1-28.6,0.1-32.3c0.2-0.2,0.3-0.7,0.3-1c0-2.9,10.7-17.5,12.8-17.5c0.1,0,0.8-0.4,1.4-1
			c1-0.9,6.5-3.8,8.3-4.4c1.7-0.6-0.3-0.6-2.3,0c-2.5,0.7-6.8,0.8-7.2,0.2c-0.2-0.4,4.8-8.4,5.5-8.7c0.2-0.1,0.3-0.3,0.3-0.5
			c0-0.2,0.4-1,0.9-1.7c1.2-1.7,1.8-2.7,2.1-3.6c0.1-0.4,0.4-0.7,0.6-0.7s0.4-0.3,0.5-0.7c0.1-0.4,1-2,1.8-3.5
			c1.4-2.4,2-3.6,3.6-7.2c5.2-11.6,3.8-23.3-4.2-34.4c-3.9-5.5-14.2-15.2-16.1-15.2c-0.2,0-0.4-0.1-0.4-0.3c0-0.2-0.8-0.7-1.8-1.1
			s-1.8-0.9-1.8-1.1c0-0.2-0.3-0.3-0.7-0.3c-0.4,0-0.9-0.2-1.2-0.5c-0.9-0.9-1.2,5-1.7,31.9c-0.7,42.8-1.3,64-1.6,64.6
			c-0.2,0.4-0.4,1.2-0.4,1.9c0,0.6-0.2,1.6-0.4,2.1c-1.4,3.6-2,4.8-3.5,7.2c-1.7,2.7-7.5,8.7-8.4,8.7c-0.3,0-0.5,0.2-0.5,0.3
			c0,0.2-0.7,0.7-1.5,1.1c-0.8,0.4-1.6,0.9-1.7,1c-0.4,0.4-2.9,1.6-3.4,1.6c-0.3,0-0.5,0.2-0.5,0.4c0,0.2-0.4,0.4-0.9,0.4
			c-0.5,0-1.3,0.2-1.7,0.5c-0.4,0.3-1.4,0.7-2.2,0.8c-0.8,0.1-2.5,0.5-3.8,0.7c-4.4,0.9-18.1,0.4-18.8-0.5c-0.1-0.2-0.6-0.3-1.2-0.3
			c-0.5,0-1.6-0.3-2.5-0.7c-0.8-0.4-2-0.8-2.5-1c-5.9-2.3-16.3-11-16.3-13.6c0-0.1-0.4-0.9-1-1.8s-1-1.9-1-2.4
			c0-0.4-0.2-0.8-0.4-0.8c-0.2,0-0.4-0.4-0.4-0.9c0-0.5-0.3-1.6-0.6-2.4c-2.7-6.5,1-18.4,8.1-25.6c4.1-4.2,12.2-8.7,17.4-9.8
			c0.9-0.2,2.5-0.5,3.5-0.8c2.3-0.6,15.4-0.3,17.2,0.3c2.5,0.9,4.2,1.4,4.4,1.2c0.1-0.1,0.2-23.8,0.3-52.7
			c0.1-40.8,0.3-52.8,0.6-53.7c0.3-0.7,0.8-1.8,1.1-2.6c0.8-1.8,3.5-4.5,5.3-5.1c0.8-0.3,1.7-0.7,2.2-0.9
			C85.4,89.1,88.8,89.2,90.4,89.7 M318.3,127.6c0.9,0.9,0.9,1.1,1,19.1l0.1,18.2l1.6-1.4c0.9-0.8,2.1-1.6,2.7-1.9
			c0.6-0.3,1.1-0.6,1.1-0.7c0-1.7,12.9-5.5,18.6-5.5c13.3,0,28.3,9.6,33.1,21.1c0.1,0.3,0.6,1.4,1.1,2.4c0.9,2,1.2,2.8,2.4,7.2
			c1.2,4.5,1.2,18.4,0,22.7c-1.4,5-2.5,7.9-3.7,10c-0.2,0.3-0.6,1.1-1,1.8c-2.7,5.3-11.4,13.3-17.5,16.1c-0.7,0.3-1.5,0.7-1.8,0.8
			c-5.5,2.6-16.6,3-23.5,0.9c-1.4-0.5-2-0.7-4.5-1.9c-2.6-1.3-3-1.5-3-1.8c0-0.2-0.2-0.3-0.5-0.3c-0.3,0-1.2-0.6-2.1-1.4
			c-2.9-2.6-3-2.6-3,0.7c0,4.4,0.3,4.3-10.7,4.3c-6.9,0-9.2-0.1-9.8-0.5c-0.6-0.5-0.7-1.7-0.7-16.1c0-10-0.1-15.7-0.4-15.8
			c-0.2-0.1-0.4-0.1-0.4,0.2s-0.9,2-2,3.9c-2,3.4-3.3,5.7-4.7,8.3c-0.4,0.7-1.3,2.3-2,3.6c-0.7,1.3-1.5,2.4-1.7,2.5
			c-0.2,0.1-0.3,0.5-0.3,0.8c0,0.4-0.3,0.9-0.6,1.2c-0.3,0.3-0.6,0.7-0.6,1c0,0.3-0.2,0.5-0.4,0.5s-0.5,0.3-0.6,0.7
			c-0.1,0.4-0.8,1.7-1.5,2.9c-1.3,2.3-2.1,3.7-4.4,7.8c-0.7,1.3-1.6,2.8-2,3.4c-0.4,0.5-1.4,2.4-2.3,4.1c-0.9,1.7-2.1,3.8-2.6,4.7
			c-0.5,0.8-1,1.6-1,1.8c0,0.2-1.3,2.4-3.1,5.2c-0.3,0.4-0.9,1.5-1.3,2.4c-0.4,0.9-1.3,2.3-1.8,3.2c-1.7,2.8-2.6,2.6,14.6,2.6
			c10,0,15.8,0.1,16.3,0.4c1.2,0.6,1.2,16.5,0,17.1c-1.3,0.7-63.2,0.6-63.7-0.2c-0.4-0.5,0.6-3.5,1.5-4.2c0.1-0.1,0.4-0.6,0.7-1
			c0.2-0.4,0.9-1.6,1.4-2.6c0.5-1,1.6-2.9,2.3-4.2c0.7-1.3,1.6-2.8,2-3.4c1.2-1.9,1.6-2.6,2.4-4.2c0.4-0.9,1.1-2.1,1.5-2.8
			c0.4-0.7,1.3-2.3,2-3.6c0.7-1.3,1.4-2.6,1.6-2.8c0.3-0.4,0.5-0.8,3.2-5.6c0.7-1.3,1.8-3.1,2.3-3.9c0.5-0.8,1.4-2.4,2-3.4
			c0.6-1,1.3-2.4,1.7-3c0.4-0.7,1.3-2.3,2-3.7c0.7-1.4,1.4-2.5,1.6-2.5c0.2,0,0.3-0.2,0.3-0.4c0-0.2,0.6-1.5,1.4-2.9
			c3.4-5.9,3.8-6.8,3.5-7.1c-0.1-0.2-5.6-0.4-14.4-0.4h-14.1l-0.2-0.9c-0.1-0.5-0.2-4.5-0.1-8.9l0.1-8l30.8-0.1L298,204v-38v-38
			l0.9-0.6C300.6,126.2,317.1,126.4,318.3,127.6 M244,161.4c0.1,0.6-0.2,1.8-0.9,3.3c-0.6,1.3-1.5,3.2-1.9,4.1
			c-0.4,0.9-0.9,1.7-1,1.7s-0.3,0.2-0.3,0.5s-0.8,2.1-1.7,4.1c-1,2-2.1,4.5-2.6,5.6c-0.5,1.1-2,4.2-3.3,7
			c-4.2,8.8-8.9,18.6-9.2,19.5c-0.1,0.3-0.4,0.9-0.6,1.2c-0.3,0.5-2,4-4,8.4c-0.4,0.8-0.8,1.5-0.9,1.5c-0.2,0.1-0.3,0.3-0.3,0.6
			c0,0.6-1.3,3.6-3.9,8.6l-2.1,4.1h15.1c8.3,0,15.4,0.1,15.7,0.2c0.9,0.3,1,18.6,0.1,19.5c-0.9,0.9-60.7,0.9-61,0
			c-0.1-0.3,0.2-1.4,0.8-2.5c2.1-4,6.2-12.8,6.2-13.2c0-0.2,0.2-0.5,0.4-0.5s0.4-0.2,0.4-0.5c0-0.2,0.7-1.9,1.6-3.8
			c0.9-1.8,1.6-3.5,1.6-3.7c0-0.2,0.2-0.4,0.4-0.4c0.2,0,0.4-0.2,0.4-0.5c0-0.3,0.6-1.8,1.4-3.3c1.5-3.1,5.9-12.2,8.3-17.3
			c0.9-1.9,2.7-5.6,4-8.4c1.3-2.7,3.3-6.9,4.4-9.2c1.1-2.3,2.2-4.5,2.4-4.9c1.2-2.4,1.7-2.3-13.3-2.4l-13.6-0.1l-0.1-10.1l-0.1-10.1
			h28.8h28.8L244,161.4 M335.2,175.5c-7.9,1.2-14.4,7.4-16.4,15.8c-2,8.4,0.4,17.8,6.1,23.2c2.8,2.7,3.6,3.2,7.4,4.8
			c3.4,1.4,14.3,0.7,16-1c0.3-0.3,1.7-1.2,2.4-1.5c1.8-0.8,6.8-6.6,6.8-7.9c0-0.3,0.2-0.6,0.4-0.6c0.2,0,0.4-0.3,0.4-0.6
			c0-0.4,0.3-1.5,0.6-2.5c1.9-6.1,1.9-9,0-15.4c-2.3-7.7-8.8-13.5-16.1-14.4C338.9,175.1,338.4,175.1,335.2,175.5 M132.7,237.8
			c-1.4,0.4-2.6,0.8-2.7,1c-0.1,0.2-0.4,0.3-0.7,0.3c-3.1,0-11.3,9.5-11.3,13.1c0,0.4-0.2,0.9-0.4,1c-0.2,0.1-0.4,2.8-0.4,6.6
			c0,3.8,0.2,6.4,0.4,6.6c0.2,0.1,0.4,0.6,0.4,1c0,2.5,6.8,11.9,8.6,11.9c0.3,0,0.5,0.1,0.5,0.3c0,0.3,1,0.8,4.4,2.1
			c1.9,0.7,10.4,0.8,12.4,0c5.5-2.1,12.4-8.1,12.4-10.8c0-0.2,0.3-0.9,0.6-1.5c2.1-4.3,2-17.4-0.2-19.8c-0.2-0.2-0.3-0.7-0.3-1.1
			c0-0.4-0.1-0.7-0.3-0.7c-0.2,0-0.7-0.6-1.1-1.4c-2.1-3.8-7.3-7.3-12.9-8.7C138.8,236.9,136.1,236.9,132.7,237.8"/>
	</g>
</g>
</svg>
