<?xml version="1.0" encoding="utf-8"?>
<!-- Generator: Adobe Illustrator 22.0.1, SVG Export Plug-In . SVG Version: 6.00 Build 0)  -->
<svg version="1.1" xmlns="http://www.w3.org/2000/svg" xmlns:xlink="http://www.w3.org/1999/xlink" x="0px" y="0px"
	 viewBox="0 0 138.5 78.5" style="enable-background:new 0 0 138.5 78.5;" xml:space="preserve">
<style type="text/css">
	.st0{font-family:'GillSansMT';}
	.st1{font-size:48px;}
	.st2{fill:#6F6A5A;}
	.st3{stroke:#000000;stroke-miterlimit:10;}
	.st4{fill:none;stroke:#000000;stroke-width:5;stroke-miterlimit:10;}
	.st5{fill:#6F6A5A;stroke:#6F6A5A;stroke-width:5;stroke-miterlimit:10;}
</style>
<g id="Layer_1">
	<text transform="matrix(1 0 0 1 12.6721 58.6752)" class="st0 st1">Jaz</text>
	<text transform="matrix(1 0 0 1 49.3387 58.6752)" class="st2 st0 st1">z</text>
	<text transform="matrix(1 0 0 1 69.1724 59.5087)" class="st0 st1">b</text>
</g>
<g id="logo">
	<path class="st3" d="M101,44c1.6-3,3.1-6.1,4.7-9.1c0.3,0.4,7.6,12.4,7.9,12.9c0.3,0.5,8,13.1,8.3,13.6c0.7-2.5,1.3-5.4,1.2-8.8
		c-0.5-13.6-12.4-23.1-13.7-24l1.8-4.1l-2.4-3.2l-2.9,3.8l-3.1-2.2l-2.7,2.7c0.7,1.3,1.4,2.5,2.2,3.8c-0.4,0.4-0.9,0.8-1.3,1.2
		L101,44z"/>
	<ellipse transform="matrix(0.4038 -0.9148 0.9148 0.4038 51.8271 114.8044)" class="st4" cx="114" cy="17.6" rx="5.9" ry="4.9"/>
	<ellipse transform="matrix(0.866 -0.5 0.5 0.866 3.6375 50.9936)" class="st4" cx="97" cy="18.7" rx="4.9" ry="5.9"/>
	<polyline class="st5" points="95.7,57.2 95.7,52.6 95.7,49.3 	"/>
	<polyline class="st5" points="95.7,47.8 95.7,43.2 95.7,39.9 	"/>
	<polyline class="st5" points="95.7,38.4 95.7,33.8 95.7,30.5 	"/>
	<polyline class="st5" points="95.7,67 95.7,62.4 95.7,59.2 	"/>
	<path class="st3" d="M110.1-2.8"/>
</g>
</svg>
