<?xml version="1.0" standalone="no"?>
<!DOCTYPE svg PUBLIC "-//W3C//DTD SVG 20010904//EN"
 "http://www.w3.org/TR/2001/REC-SVG-20010904/DTD/svg10.dtd">
<svg version="1.0" xmlns="http://www.w3.org/2000/svg"
 width="940.000000pt" height="940.000000pt" viewBox="0 0 940.000000 940.000000"
 preserveAspectRatio="xMidYMid meet">
<metadata>
Created by potrace 1.15, written by Peter Selinger 2001-2017
</metadata>
<g transform="translate(0.000000,940.000000) scale(0.100000,-0.100000)"
fill="#02c79b" stroke="none">
<path d="M0 4700 l0 -4700 4700 0 4700 0 0 4700 0 4700 -4700 0 -4700 0 0
-4700z m8620 3672 c413 -530 750 -968 747 -975 -2 -7 -1280 -1650 -2838 -3653
-1559 -2002 -2841 -3651 -2850 -3665 -9 -13 -19 -22 -21 -19 -43 46 -3531
4417 -3532 4425 -2 17 1417 1904 1432 1904 7 1 19 -5 25 -11 24 -25 323 -384
373 -448 28 -36 68 -83 89 -105 20 -22 64 -73 96 -113 33 -41 67 -81 75 -90 9
-9 52 -62 95 -118 44 -56 83 -104 87 -106 4 -2 45 -52 91 -113 47 -60 94 -120
105 -131 57 -58 97 -105 139 -161 26 -34 50 -63 55 -65 4 -1 45 -52 91 -113
46 -60 91 -117 101 -125 9 -8 48 -55 86 -105 37 -49 84 -107 104 -128 19 -22
44 -49 55 -61 11 -12 45 -53 75 -92 30 -38 62 -76 71 -84 9 -8 47 -55 85 -105
37 -49 83 -106 101 -125 18 -19 39 -44 47 -55 14 -19 15 -19 44 10 16 17 62
73 103 125 40 52 81 102 90 110 9 8 142 179 295 380 153 201 282 367 286 368
10 4 264 336 281 366 15 27 266 355 290 379 10 10 64 77 120 150 56 73 196
252 312 399 115 146 329 423 475 614 145 191 274 357 286 368 12 12 142 179
289 371 146 193 274 357 284 365 9 8 142 179 296 380 154 201 291 376 305 390
14 14 129 161 255 327 127 167 235 302 241 300 7 -1 350 -435 764 -965z"/>
</g>
</svg>
