<?xml version="1.0" encoding="utf-8"?>
<!-- Generator: Adobe Illustrator 22.0.1, SVG Export Plug-In . SVG Version: 6.00 Build 0)  -->
<svg version="1.1" id="Layer_1" xmlns="http://www.w3.org/2000/svg" xmlns:xlink="http://www.w3.org/1999/xlink" x="0px" y="0px"
	 viewBox="0 0 500 500" style="enable-background:new 0 0 500 500;" xml:space="preserve">
<g>
	<path d="M250,5C142,5,54.5,92.5,54.5,200.5c0,25.8,6.4,50.2,8.5,57.1c14.3,48.2,41.8,75.4,81.7,118.2
		c25.4,27.2,62,67.3,106.4,119.3c42.7-49.7,76.8-87.6,98.3-111.2c47.5-52.1,73.6-78.3,87.6-126c2.6-9,8.5-32,8.5-57.4
		C445.5,92.5,358,5,250,5z M250,330.8c-72,0-130.3-58.4-130.3-130.3c0-72,58.4-130.3,130.3-130.3c72,0,130.3,58.4,130.3,130.3
		C380.3,272.5,322,330.8,250,330.8z"/>
</g>
<circle cx="250" cy="200.5" r="94.2"/>
</svg>
