<?xml version="1.0" encoding="utf-8"?>
<!-- Generator: Adobe Illustrator 22.0.1, SVG Export Plug-In . SVG Version: 6.00 Build 0)  -->
<svg version="1.1" id="Layer_1" xmlns="http://www.w3.org/2000/svg" xmlns:xlink="http://www.w3.org/1999/xlink" x="0px" y="0px"
	 viewBox="0 0 500 500" style="enable-background:new 0 0 500 500;" xml:space="preserve">
<g>
	<path d="M148.8,151.4C110.8,116.9,76,81.5,44.1,45.6c0.7-2.6,9.8-32.6,37.2-40.3c10.4-2.9,19.6-1.6,25.3-0.2
		c28.2,31.9,56.4,63.7,84.6,95.6c1.6,2.6,7,12,4.7,24c-1.2,6.4-4.1,11-6.1,13.6c-2.8,3.3-6.3,6.9-10.7,10.5
		c-7.2,5.9-14.3,9.7-19.9,12C155.8,157.7,152.3,154.6,148.8,151.4z M250.3,370c-22.6-5.7-37.1-19.8-66.2-48
		c-29.4-28.5-44.1-42.8-50.6-64.9c-9.1-30.9,0.1-60,8-77.4C102.7,141.3,64,102.9,25.2,64.5c-16.4,43-33,110.9-6.1,172.2
		C31,263.8,52.7,292.8,67,311.5c17.6,23.1,36.9,44.9,57.3,65.4c20.4,20.5,42.1,39.9,65.3,57.5c18,13.7,47.3,35.7,74.7,47.8
		c62.1,27.2,130.7,9.8,172.6-6.1c-38.1-38.4-76.1-76.8-114.2-115.2C309.1,367.3,281.3,377.9,250.3,370z M484.1,382.7
		c-32.1-45.8-64-73.5-79.8-76.8c-4.5-0.9-18.6-2.3-26.7,1.6c-5,2.4-8.6,5.6-8.6,5.6c-0.7,0.7-1,1-4.7,4.6c-1.2,1.1-2.4,2.5-5.5,5.5
		c-7.8,7.8-11.7,11.7-12.8,12.9c-1.8,1.9-3.3,3.5-5.7,5.6c-3,2.8-5.6,4.8-7.4,6.2l117.1,117.2c6.5-4.8,16-11.8,28.1-20.9
		c5.8-4.4,9.5-7.2,12.5-12.4c4.9-8.6,4.5-17.3,4.3-21.6C494.2,396.5,487.4,386.8,484.1,382.7z"/>
</g>
</svg>
