<svg id="svg" version="1.1" width="400" height="400" xmlns="http://www.w3.org/2000/svg" xmlns:xlink="http://www.w3.org/1999/xlink" style="display: block;"><g id="svgg"><path id="path0" d="M25.000 87.500 L 25.000 150.000 87.500 150.000 L 150.000 150.000 150.000 87.500 L 150.000 25.000 87.500 25.000 L 25.000 25.000 25.000 87.500 M175.000 62.500 L 175.000 100.000 187.500 100.000 L 200.000 100.000 200.000 112.500 L 200.000 125.000 187.500 125.000 L 175.000 125.000 175.000 150.000 L 175.000 175.000 187.500 175.000 L 200.000 175.000 200.000 187.500 L 200.000 200.000 162.500 200.000 L 125.000 200.000 125.000 187.500 L 125.000 175.000 100.000 175.000 L 75.000 175.000 75.000 187.500 L 75.000 200.000 62.500 200.000 L 50.000 200.000 50.000 187.500 L 50.000 175.000 37.500 175.000 L 25.000 175.000 25.000 187.500 L 25.000 200.000 37.500 200.000 L 50.000 200.000 50.000 212.500 L 50.000 225.000 62.500 225.000 L 75.000 225.000 75.000 212.500 L 75.000 200.000 87.500 200.000 L 100.000 200.000 100.000 212.500 L 100.000 225.000 137.500 225.000 L 175.000 225.000 175.000 237.500 L 175.000 250.000 187.500 250.000 L 200.000 250.000 200.000 262.500 L 200.000 275.000 187.500 275.000 L 175.000 275.000 175.000 312.500 L 175.000 350.000 187.500 350.000 L 200.000 350.000 200.000 362.500 L 200.000 375.000 250.000 375.000 L 300.000 375.000 300.000 350.000 L 300.000 325.000 325.000 325.000 L 350.000 325.000 350.000 337.500 L 350.000 350.000 337.500 350.000 L 325.000 350.000 325.000 362.500 L 325.000 375.000 337.500 375.000 L 350.000 375.000 350.000 362.500 L 350.000 350.000 362.500 350.000 L 375.000 350.000 375.000 337.500 L 375.000 325.000 362.500 325.000 L 350.000 325.000 350.000 312.500 L 350.000 300.000 362.500 300.000 L 375.000 300.000 375.000 287.500 L 375.000 275.000 362.500 275.000 L 350.000 275.000 350.000 250.000 L 350.000 225.000 362.500 225.000 L 375.000 225.000 375.000 200.000 L 375.000 175.000 362.500 175.000 L 350.000 175.000 350.000 187.500 L 350.000 200.000 337.500 200.000 L 325.000 200.000 325.000 225.000 L 325.000 250.000 287.500 250.000 L 250.000 250.000 250.000 237.500 L 250.000 225.000 237.500 225.000 L 225.000 225.000 225.000 237.500 L 225.000 250.000 212.500 250.000 L 200.000 250.000 200.000 225.000 L 200.000 200.000 212.500 200.000 L 225.000 200.000 225.000 187.500 L 225.000 175.000 212.500 175.000 L 200.000 175.000 200.000 162.500 L 200.000 150.000 212.500 150.000 L 225.000 150.000 225.000 112.500 L 225.000 75.000 212.500 75.000 L 200.000 75.000 200.000 62.500 L 200.000 50.000 212.500 50.000 L 225.000 50.000 225.000 37.500 L 225.000 25.000 200.000 25.000 L 175.000 25.000 175.000 62.500 M250.000 87.500 L 250.000 150.000 312.500 150.000 L 375.000 150.000 375.000 87.500 L 375.000 25.000 312.500 25.000 L 250.000 25.000 250.000 87.500 M125.000 87.500 L 125.000 125.000 87.500 125.000 L 50.000 125.000 50.000 87.500 L 50.000 50.000 87.500 50.000 L 125.000 50.000 125.000 87.500 M350.000 87.500 L 350.000 125.000 312.500 125.000 L 275.000 125.000 275.000 87.500 L 275.000 50.000 312.500 50.000 L 350.000 50.000 350.000 87.500 M75.000 87.500 L 75.000 100.000 87.500 100.000 L 100.000 100.000 100.000 87.500 L 100.000 75.000 87.500 75.000 L 75.000 75.000 75.000 87.500 M300.000 87.500 L 300.000 100.000 312.500 100.000 L 325.000 100.000 325.000 87.500 L 325.000 75.000 312.500 75.000 L 300.000 75.000 300.000 87.500 M250.000 187.500 L 250.000 200.000 262.500 200.000 L 275.000 200.000 275.000 212.500 L 275.000 225.000 287.500 225.000 L 300.000 225.000 300.000 200.000 L 300.000 175.000 275.000 175.000 L 250.000 175.000 250.000 187.500 M25.000 312.500 L 25.000 375.000 87.500 375.000 L 150.000 375.000 150.000 312.500 L 150.000 250.000 87.500 250.000 L 25.000 250.000 25.000 312.500 M250.000 262.500 L 250.000 275.000 275.000 275.000 L 300.000 275.000 300.000 300.000 L 300.000 325.000 287.500 325.000 L 275.000 325.000 275.000 337.500 L 275.000 350.000 237.500 350.000 L 200.000 350.000 200.000 337.500 L 200.000 325.000 212.500 325.000 L 225.000 325.000 225.000 312.500 L 225.000 300.000 212.500 300.000 L 200.000 300.000 200.000 287.500 L 200.000 275.000 212.500 275.000 L 225.000 275.000 225.000 262.500 L 225.000 250.000 237.500 250.000 L 250.000 250.000 250.000 262.500 M125.000 312.500 L 125.000 350.000 87.500 350.000 L 50.000 350.000 50.000 312.500 L 50.000 275.000 87.500 275.000 L 125.000 275.000 125.000 312.500 M225.000 287.500 L 225.000 300.000 237.500 300.000 L 250.000 300.000 250.000 312.500 L 250.000 325.000 262.500 325.000 L 275.000 325.000 275.000 312.500 L 275.000 300.000 262.500 300.000 L 250.000 300.000 250.000 287.500 L 250.000 275.000 237.500 275.000 L 225.000 275.000 225.000 287.500 M350.000 287.500 L 350.000 300.000 337.500 300.000 L 325.000 300.000 325.000 287.500 L 325.000 275.000 337.500 275.000 L 350.000 275.000 350.000 287.500 M75.000 312.500 L 75.000 325.000 87.500 325.000 L 100.000 325.000 100.000 312.500 L 100.000 300.000 87.500 300.000 L 75.000 300.000 75.000 312.500 " stroke="none" fill="#000000" fill-rule="evenodd"></path></g></svg>