<svg id="svg" version="1.1" width="400" height="80.2" xmlns="http://www.w3.org/2000/svg" xmlns:xlink="http://www.w3.org/1999/xlink" style="display: block;"><g id="svgg"><path id="path0" d="" stroke="none" fill="#000" fill-rule="evenodd"></path><path id="path1" d="M184.879 37.500 C 184.879 37.912,184.911 38.081,184.951 37.875 C 184.991 37.669,184.991 37.331,184.951 37.125 C 184.911 36.919,184.879 37.087,184.879 37.500 M184.899 42.417 C 184.899 43.700,184.926 44.203,184.957 43.534 C 184.989 42.866,184.989 41.816,184.957 41.201 C 184.925 40.586,184.899 41.133,184.899 42.417 " stroke="none" fill="#0055ff" fill-rule="evenodd"></path><path id="path2" d="M256.070 21.167 C 256.070 23.046,256.095 23.815,256.124 22.875 C 256.154 21.935,256.154 20.398,256.124 19.458 C 256.095 18.519,256.070 19.287,256.070 21.167 M158.709 42.250 C 158.711 42.617,158.745 42.747,158.785 42.540 C 158.824 42.332,158.823 42.032,158.781 41.873 C 158.739 41.714,158.707 41.883,158.709 42.250 M158.705 45.500 C 158.705 45.821,158.740 45.952,158.782 45.792 C 158.823 45.631,158.823 45.369,158.782 45.208 C 158.740 45.048,158.705 45.179,158.705 45.500 M158.712 60.500 C 158.712 60.913,158.745 61.081,158.784 60.875 C 158.824 60.669,158.824 60.331,158.784 60.125 C 158.745 59.919,158.712 60.087,158.712 60.500 " stroke="none" fill="#0099ff" fill-rule="evenodd"></path><path id="path3" d="M165.531 0.260 C 161.622 1.312,158.498 5.845,158.703 10.167 C 158.745 11.038,158.861 11.900,158.961 12.083 C 159.061 12.267,159.261 12.808,159.407 13.287 C 159.812 14.625,161.003 16.314,162.207 17.260 C 162.550 17.530,163.037 17.919,163.290 18.125 C 163.543 18.331,163.814 18.500,163.892 18.500 C 163.971 18.500,164.400 18.683,164.846 18.907 C 169.122 21.055,175.606 18.751,177.634 14.362 C 177.789 14.025,177.965 13.713,178.024 13.667 C 178.251 13.489,178.668 11.727,178.768 10.518 C 179.352 3.479,172.706 -1.671,165.531 0.260 M9.083 1.772 C 7.911 1.929,5.369 2.708,5.167 2.973 C 5.121 3.034,4.808 3.223,4.471 3.394 C 3.463 3.907,1.167 6.406,1.167 6.991 C 1.167 7.088,1.100 7.167,1.018 7.167 C 0.751 7.167,0.351 8.443,0.174 9.857 C -0.245 13.198,0.034 53.520,0.502 57.167 C 0.804 59.527,2.434 63.619,4.053 66.083 C 5.687 68.570,6.672 69.807,8.425 71.572 C 9.713 72.869,12.495 75.111,13.696 75.820 C 14.709 76.418,16.996 77.667,17.078 77.667 C 17.122 77.667,17.629 77.879,18.204 78.139 C 18.779 78.399,19.625 78.711,20.083 78.832 C 20.542 78.953,20.996 79.113,21.094 79.187 C 22.026 79.899,47.645 80.335,51.333 79.702 C 53.367 79.353,55.521 77.852,56.586 76.042 C 56.762 75.744,56.953 75.500,57.011 75.500 C 57.069 75.500,57.253 75.181,57.421 74.792 C 57.588 74.402,57.858 73.777,58.021 73.403 C 58.624 72.013,58.741 68.702,58.238 67.245 C 57.685 65.643,56.502 63.796,55.462 62.911 C 52.400 60.306,52.509 60.325,39.917 60.164 C 34.325 60.093,29.488 59.988,29.167 59.932 C 28.846 59.875,27.966 59.747,27.213 59.648 C 24.242 59.255,21.003 56.123,20.402 53.064 C 20.261 52.341,20.070 51.375,19.979 50.917 C 19.887 50.458,19.836 48.846,19.865 47.333 L 19.917 44.583 33.968 44.482 C 44.166 44.409,48.071 44.329,48.209 44.191 C 48.314 44.086,48.671 44.000,49.003 44.000 C 49.743 44.000,51.239 43.570,51.537 43.272 C 51.658 43.151,51.935 42.957,52.152 42.841 C 53.283 42.236,55.122 40.077,55.593 38.803 C 55.739 38.407,55.927 37.955,56.010 37.798 C 56.519 36.840,56.537 32.966,56.035 32.267 C 55.962 32.166,55.803 31.783,55.682 31.417 C 54.990 29.330,51.571 26.167,50.007 26.167 C 49.856 26.167,49.652 26.085,49.553 25.986 C 49.223 25.656,45.200 25.517,32.475 25.398 L 19.866 25.279 19.783 17.515 C 19.696 9.307,19.647 8.748,18.876 7.195 C 17.936 5.303,14.819 2.760,12.917 2.332 C 12.458 2.229,11.968 2.084,11.827 2.009 C 11.499 1.837,9.738 1.685,9.083 1.772 M193.499 1.990 C 193.362 2.063,192.912 2.172,192.500 2.233 C 190.300 2.557,187.210 5.005,186.030 7.358 C 185.232 8.950,185.173 10.623,185.131 32.917 C 185.089 55.054,185.120 55.734,186.334 59.833 C 186.537 60.521,186.765 61.159,186.839 61.252 C 186.914 61.345,187.135 61.849,187.331 62.373 C 187.648 63.220,188.169 64.235,189.291 66.189 C 190.437 68.183,192.265 70.315,195.217 73.098 C 197.414 75.169,202.351 77.993,205.083 78.741 C 205.633 78.891,206.206 79.081,206.355 79.163 C 208.388 80.273,227.667 80.287,227.667 79.178 C 227.667 79.100,227.837 78.993,228.044 78.941 C 229.089 78.679,231.019 76.802,231.980 75.114 C 233.108 73.132,233.661 69.299,233.003 68.020 C 232.927 67.871,232.775 67.412,232.665 67.000 C 232.229 65.361,229.862 62.167,229.084 62.167 C 228.946 62.167,228.833 62.090,228.833 61.995 C 228.833 61.901,228.210 61.527,227.448 61.163 C 225.745 60.350,224.110 60.173,218.233 60.169 C 216.116 60.168,214.166 60.099,213.900 60.017 C 213.634 59.935,212.877 59.778,212.217 59.670 C 211.060 59.480,209.370 58.657,208.503 57.861 C 205.867 55.442,205.568 54.537,205.389 48.401 L 205.282 44.720 206.332 44.610 C 206.910 44.549,209.940 44.492,213.066 44.483 C 222.611 44.453,225.260 44.155,226.573 42.961 C 226.751 42.799,226.960 42.667,227.037 42.667 C 227.286 42.667,229.401 40.399,229.874 39.624 C 230.775 38.150,231.395 34.868,231.013 33.595 C 230.929 33.314,230.733 32.633,230.579 32.083 C 230.310 31.121,229.588 29.745,229.021 29.115 C 227.839 27.799,226.008 26.424,225.167 26.221 C 224.938 26.166,224.663 26.053,224.557 25.970 C 224.272 25.746,220.353 25.513,216.750 25.506 C 215.008 25.502,211.727 25.450,209.458 25.390 L 205.333 25.280 205.325 19.515 C 205.315 11.864,204.893 7.898,204.014 7.167 C 203.959 7.121,203.764 6.797,203.582 6.447 C 202.915 5.168,200.844 3.389,199.167 2.653 C 197.846 2.074,194.155 1.642,193.499 1.990 M243.000 2.280 C 242.221 2.506,241.471 2.789,241.333 2.909 C 241.196 3.029,240.896 3.184,240.668 3.254 C 239.210 3.700,236.727 7.211,236.073 9.750 C 235.429 12.255,235.806 53.971,236.504 57.333 C 236.863 59.065,238.425 63.232,238.944 63.846 C 239.067 63.991,239.168 64.179,239.169 64.263 C 239.176 64.614,241.792 68.667,242.012 68.667 C 242.085 68.667,242.187 68.803,242.240 68.969 C 242.364 69.361,245.456 72.541,246.750 73.609 C 248.483 75.039,251.501 77.000,251.968 77.000 C 252.077 77.000,252.167 77.058,252.167 77.128 C 252.167 77.198,252.635 77.439,253.208 77.663 C 253.781 77.887,254.287 78.122,254.333 78.185 C 254.379 78.248,254.979 78.464,255.667 78.665 C 256.354 78.867,257.142 79.129,257.417 79.248 C 259.812 80.284,278.833 80.180,278.833 79.131 C 278.833 79.059,278.927 78.999,279.042 78.999 C 279.592 78.995,282.266 76.293,282.711 75.292 C 282.823 75.040,282.966 74.833,283.029 74.833 C 283.817 74.833,284.579 68.918,283.942 67.750 C 283.792 67.475,283.668 67.136,283.668 66.997 C 283.663 65.924,280.517 62.103,279.083 61.430 C 278.717 61.258,278.379 61.062,278.333 60.994 C 278.116 60.672,276.614 60.476,273.250 60.329 C 271.233 60.242,268.871 60.137,268.000 60.098 C 264.399 59.935,261.415 59.439,260.893 58.917 C 260.756 58.779,260.572 58.667,260.485 58.667 C 260.146 58.667,257.959 56.238,257.334 55.168 C 256.413 53.591,256.167 52.042,256.167 47.828 L 256.167 44.533 264.708 44.472 C 270.545 44.430,273.356 44.352,273.583 44.226 C 273.767 44.124,274.541 43.924,275.303 43.780 C 280.666 42.772,283.536 36.025,280.872 30.692 C 279.832 28.610,277.818 26.796,276.037 26.338 C 275.604 26.227,275.100 26.067,274.917 25.984 C 274.214 25.663,271.150 25.500,263.807 25.391 L 256.196 25.279 256.086 24.542 C 256.025 24.136,255.990 22.105,256.008 20.027 C 256.069 12.868,255.631 7.333,255.002 7.333 C 254.932 7.333,254.780 7.106,254.665 6.829 C 254.398 6.185,252.157 3.936,250.984 3.135 C 249.051 1.817,245.794 1.468,243.000 2.280 M69.162 24.520 C 65.390 24.767,62.064 28.038,61.470 32.086 C 60.906 35.926,61.243 55.908,61.919 58.750 C 62.050 59.300,62.269 60.250,62.406 60.861 C 62.883 62.984,64.030 65.286,66.167 68.405 C 67.608 70.508,73.144 75.833,73.890 75.833 C 73.932 75.833,74.357 76.096,74.833 76.417 C 75.310 76.737,75.773 77.000,75.862 77.000 C 75.951 77.000,76.130 77.106,76.259 77.235 C 76.388 77.364,76.852 77.602,77.289 77.763 C 77.726 77.925,78.196 78.143,78.333 78.248 C 78.731 78.554,81.823 79.498,83.091 79.701 C 86.168 80.194,95.711 79.833,96.573 79.191 C 96.670 79.118,97.087 78.963,97.500 78.847 C 99.379 78.318,103.698 76.061,104.681 75.093 C 104.826 74.950,105.003 74.833,105.075 74.833 C 105.147 74.833,105.574 74.563,106.024 74.233 C 106.801 73.662,106.861 73.645,107.213 73.899 C 108.702 74.975,111.416 76.713,111.830 76.857 C 112.107 76.954,112.333 77.095,112.333 77.172 C 112.333 77.248,112.502 77.363,112.708 77.426 C 112.915 77.489,113.608 77.782,114.250 78.076 C 114.892 78.370,115.792 78.710,116.250 78.832 C 116.708 78.953,117.158 79.108,117.250 79.178 C 118.597 80.195,130.616 80.192,132.917 79.173 C 133.100 79.092,133.700 78.892,134.250 78.730 C 135.165 78.460,136.889 77.716,137.500 77.328 C 137.637 77.241,138.120 76.973,138.571 76.734 C 139.023 76.494,139.497 76.193,139.625 76.065 C 139.753 75.938,139.910 75.833,139.974 75.833 C 140.038 75.833,140.513 75.515,141.030 75.125 C 144.888 72.218,147.614 68.926,149.903 64.410 C 150.323 63.582,150.667 62.832,150.668 62.744 C 150.668 62.655,150.790 62.358,150.939 62.083 C 151.292 61.431,151.833 59.416,151.833 58.753 C 151.833 58.467,151.903 58.162,151.988 58.075 C 152.305 57.750,152.494 52.454,152.538 42.667 C 152.585 32.229,152.539 31.360,151.893 30.421 C 151.768 30.240,151.667 29.990,151.667 29.864 C 151.667 29.554,150.387 27.740,149.653 27.010 C 145.404 22.783,138.316 23.678,134.981 28.864 C 133.680 30.888,133.607 31.640,133.346 45.667 C 133.132 57.155,133.113 57.235,130.055 59.629 C 129.673 59.929,128.998 60.327,128.555 60.514 C 128.112 60.702,127.569 60.944,127.349 61.052 C 126.825 61.310,123.034 61.321,122.869 61.066 C 122.803 60.965,122.369 60.757,121.902 60.604 C 121.436 60.450,120.608 60.000,120.062 59.602 C 119.152 58.940,118.806 58.591,117.953 57.474 C 117.622 57.041,117.167 55.645,117.167 55.063 C 117.167 54.856,117.101 54.646,117.020 54.596 C 116.797 54.458,116.681 51.490,116.576 43.250 C 116.478 35.538,116.295 31.411,116.029 30.884 C 115.945 30.719,115.716 30.223,115.519 29.782 C 115.125 28.899,115.168 28.962,114.063 27.667 C 110.873 23.931,104.365 23.176,101.138 26.167 C 99.920 27.296,99.586 27.662,99.085 28.417 C 98.781 28.875,98.323 29.738,98.068 30.333 L 97.603 31.417 97.488 41.500 C 97.311 56.854,97.355 56.661,93.333 59.890 C 93.196 60.000,92.671 60.262,92.167 60.471 C 91.662 60.680,91.070 60.941,90.850 61.051 C 90.216 61.366,86.881 61.312,86.167 60.974 C 85.846 60.823,85.295 60.580,84.944 60.435 C 83.746 59.942,82.327 58.646,81.546 57.333 C 81.300 56.921,81.046 56.546,80.981 56.499 C 80.557 56.198,80.406 53.028,80.232 40.750 C 80.175 36.717,80.092 33.267,80.048 33.083 C 80.004 32.900,79.899 32.300,79.815 31.750 C 79.642 30.620,79.370 29.684,79.123 29.373 C 79.031 29.258,78.835 28.945,78.686 28.678 C 76.968 25.589,73.822 24.216,69.162 24.520 M166.333 24.574 C 165.829 24.691,165.102 24.947,164.716 25.144 C 164.331 25.340,163.956 25.501,163.883 25.502 C 163.464 25.509,160.782 28.022,160.250 28.906 C 158.760 31.382,158.763 31.343,158.761 52.583 C 158.760 72.380,158.798 73.132,159.884 75.000 C 160.513 76.081,162.916 78.522,163.652 78.827 C 163.935 78.944,164.167 79.103,164.167 79.180 C 164.167 80.078,171.317 80.225,172.936 79.361 C 174.444 78.556,174.846 78.256,175.922 77.137 C 177.725 75.260,178.306 74.061,178.522 71.774 C 178.804 68.773,178.807 34.320,178.525 32.333 C 177.751 26.875,172.049 23.247,166.333 24.574 M309.333 24.589 C 308.279 24.720,307.267 24.898,307.083 24.983 C 306.900 25.069,306.000 25.303,305.083 25.505 C 304.167 25.706,303.342 25.924,303.250 25.990 C 303.158 26.055,302.746 26.202,302.333 26.317 C 301.921 26.432,301.133 26.740,300.583 27.000 C 300.033 27.260,299.321 27.591,299.000 27.733 C 298.362 28.018,298.282 28.065,296.593 29.152 C 295.004 30.175,292.072 32.870,291.248 34.063 C 290.000 35.871,289.074 37.438,288.380 38.917 C 288.251 39.192,288.073 39.550,287.985 39.712 C 287.254 41.066,286.352 44.354,285.827 47.583 C 285.642 48.716,285.643 53.829,285.827 55.167 C 286.107 57.195,286.682 60.066,286.911 60.575 C 287.037 60.855,287.191 61.271,287.253 61.500 C 287.750 63.336,289.558 66.510,291.479 68.917 C 295.152 73.520,301.002 77.682,305.417 78.834 C 305.875 78.954,306.325 79.104,306.417 79.168 C 307.446 79.890,334.006 80.450,337.402 79.822 C 339.412 79.450,341.977 77.211,342.578 75.304 C 342.731 74.816,342.944 74.239,343.051 74.022 C 343.280 73.553,343.295 70.522,343.068 70.361 C 342.982 70.300,342.814 69.875,342.696 69.417 C 342.201 67.506,340.133 65.297,338.083 64.491 C 336.724 63.957,332.521 63.742,322.464 63.693 C 315.129 63.656,312.051 63.463,311.417 62.999 C 311.325 62.932,310.968 62.786,310.624 62.675 C 308.469 61.981,306.333 59.736,306.333 58.163 L 306.333 57.667 317.208 57.658 C 330.528 57.647,340.044 57.451,340.132 57.187 C 340.166 57.084,340.357 56.998,340.556 56.996 C 341.909 56.983,344.050 54.999,344.590 53.258 C 344.734 52.795,344.934 52.267,345.036 52.084 C 345.291 51.625,345.401 47.953,345.193 46.833 C 344.865 45.060,344.320 42.953,344.015 42.272 C 343.845 41.893,343.652 41.396,343.586 41.167 C 343.345 40.335,341.526 36.876,341.038 36.323 C 340.922 36.191,340.351 35.483,339.769 34.750 C 338.500 33.150,336.260 30.973,334.807 29.928 C 334.226 29.509,333.670 29.102,333.572 29.022 C 332.934 28.502,328.996 26.647,327.833 26.320 C 327.421 26.203,327.002 26.048,326.904 25.974 C 326.719 25.837,323.893 25.163,321.667 24.727 C 319.819 24.364,311.845 24.275,309.333 24.589 M375.917 25.685 C 374.542 25.767,373.286 25.909,373.127 26.000 C 372.968 26.092,372.609 26.167,372.329 26.167 C 371.575 26.167,369.325 26.654,368.750 26.941 C 368.475 27.079,367.912 27.307,367.500 27.449 C 366.138 27.917,361.643 30.429,361.167 30.987 C 361.121 31.041,360.783 31.309,360.417 31.582 C 358.440 33.054,355.499 36.338,354.070 38.667 C 352.996 40.418,352.831 40.711,352.474 41.500 C 352.287 41.912,351.998 42.550,351.830 42.917 C 351.662 43.283,351.438 43.921,351.330 44.333 C 351.223 44.746,351.068 45.212,350.986 45.370 C 350.347 46.597,350.167 50.159,350.151 61.917 C 350.138 71.937,350.190 73.320,350.614 74.250 C 352.085 77.473,354.947 79.728,357.833 79.939 C 362.822 80.303,365.948 78.711,367.773 74.878 C 368.535 73.277,368.536 73.269,368.671 62.500 C 368.834 49.466,368.960 48.846,371.942 46.394 C 373.925 44.763,374.057 44.743,384.478 44.501 C 388.544 44.407,391.943 44.285,392.031 44.231 C 392.119 44.177,392.689 44.028,393.298 43.901 C 395.995 43.336,398.638 40.758,399.432 37.917 C 400.912 32.619,398.496 27.939,393.301 26.042 L 392.083 25.597 385.250 25.566 C 381.492 25.549,377.292 25.603,375.917 25.685 M318.958 39.489 C 322.238 40.166,325.167 42.465,325.167 44.363 C 325.167 44.438,320.967 44.500,315.833 44.500 C 309.232 44.500,306.500 44.447,306.500 44.319 C 306.500 43.267,308.193 41.223,309.583 40.597 C 309.950 40.432,310.459 40.197,310.713 40.075 C 311.168 39.858,313.097 39.402,314.083 39.279 C 315.455 39.108,317.548 39.198,318.958 39.489 " stroke="none" fill="#000" fill-rule="evenodd"></path><path id="path4" d="M184.887 35.833 C 184.887 36.429,184.917 36.673,184.954 36.375 C 184.991 36.077,184.991 35.590,184.954 35.292 C 184.917 34.994,184.887 35.237,184.887 35.833 M184.887 39.167 C 184.887 39.762,184.917 40.006,184.954 39.708 C 184.991 39.410,184.991 38.923,184.954 38.625 C 184.917 38.327,184.887 38.571,184.887 39.167 " stroke="none" fill="#00ffff" fill-rule="evenodd"></path></g></svg>
